<svg xmlns="http://www.w3.org/2000/svg" width="21.562" height="35.969" viewBox="0 0 21.562 35.969">
  <metadata><?xpacket begin="﻿" id="W5M0MpCehiHzreSzNTczkc9d"?>
<x:xmpmeta xmlns:x="adobe:ns:meta/" x:xmptk="Adobe XMP Core 5.6-c140 79.160451, 2017/05/06-01:08:21        ">
   <rdf:RDF xmlns:rdf="http://www.w3.org/1999/02/22-rdf-syntax-ns#">
      <rdf:Description rdf:about=""/>
   </rdf:RDF>
</x:xmpmeta>
                                                                                                    
                                                                                                    
                                                                                                    
                                                                                                    
                                                                                                    
                                                                                                    
                                                                                                    
                                                                                                    
                                                                                                    
                                                                                                    
                                                                                                    
                                                                                                    
                                                                                                    
                                                                                                    
                                                                                                    
                                                                                                    
                                                                                                    
                                                                                                    
                                                                                                    
                                                                                                    
                           
<?xpacket end="w"?></metadata>
<defs>
    <style>
      .cls-1 {
        fill: #d9cabb;
        fill-rule: evenodd;
      }
    </style>
  </defs>
  <path class="cls-1" d="M172.5,908.227a9.1,9.1,0,1,0-9.071-9.1A9.085,9.085,0,0,0,172.5,908.227Zm0-13.578a4.478,4.478,0,1,1-4.462,4.478A4.47,4.47,0,0,1,172.5,894.649Zm10.457,14.689c-0.513-1.032-1.931-1.891-3.816-.4-2.548,2.015-6.641,2.015-6.641,2.015s-4.092,0-6.64-2.015c-1.885-1.49-3.3-.631-3.816.4-0.893,1.8.116,2.669,2.393,4.135a15.183,15.183,0,0,0,6.341,1.9l-1.44,1.445-5.345,5.362a2.09,2.09,0,0,0,0,2.951l0.245,0.247a2.074,2.074,0,0,0,2.941,0l5.345-5.363,5.346,5.363a2.074,2.074,0,0,0,2.941,0l0.245-.247a2.091,2.091,0,0,0,0-2.951l-5.345-5.363-1.445-1.449a15.142,15.142,0,0,0,6.3-1.891C182.841,912.007,183.85,911.137,182.958,909.338Z" transform="translate(-161.719 -890.031)"/>
</svg>
