<svg xmlns="http://www.w3.org/2000/svg" width="32" height="18.781" viewBox="0 0 32 18.781">
  <metadata><?xpacket begin="﻿" id="W5M0MpCehiHzreSzNTczkc9d"?>
<x:xmpmeta xmlns:x="adobe:ns:meta/" x:xmptk="Adobe XMP Core 5.6-c140 79.160451, 2017/05/06-01:08:21        ">
   <rdf:RDF xmlns:rdf="http://www.w3.org/1999/02/22-rdf-syntax-ns#">
      <rdf:Description rdf:about=""/>
   </rdf:RDF>
</x:xmpmeta>
<?xpacket end="w"?></metadata>
<defs>
    <style>
      .cls-1 {
        fill: #d9cabb;
        fill-rule: evenodd;
      }
    </style>
  </defs>
  <path id="Shape_F_3_copy_3" data-name="Shape F_3 copy 3" class="cls-1" d="M66.65,919.759h1.913a1.591,1.591,0,0,0,.873-0.394A1.476,1.476,0,0,0,69.7,918.5s-0.037-2.675,1.154-3.064c1.174-.385,2.682,2.557,4.28,3.688a2.828,2.828,0,0,0,2.127.635l4.273,0s2.235-.174,1.175-1.987a14.646,14.646,0,0,0-3.178-3.79c-2.68-2.565-2.321-2.15.907-6.585,1.966-2.7,2.752-4.352,2.506-5.058-0.234-.672-1.669-0.557-1.669-0.557H76.452a1.132,1.132,0,0,0-.621.127,1.393,1.393,0,0,0-.424.573,28.515,28.515,0,0,1-1.777,3.908c-2.143,3.75-3,3.949-3.35,3.716-0.815-.543-0.611-2.181-0.611-3.345,0-3.635.535-5.151-1.042-5.543a8,8,0,0,0-2.246-.23,10.1,10.1,0,0,0-3.993.42c-0.547.278-.97,0.893-0.712,0.928a2.136,2.136,0,0,1,1.42.737,4.908,4.908,0,0,1,.476,2.244s0.284,4.28-.662,4.812c-0.648.364-1.538-.381-3.448-3.784a31.153,31.153,0,0,1-1.718-3.706,1.467,1.467,0,0,0-.4-0.553,1.966,1.966,0,0,0-.739-0.308l-4.572,0a1.527,1.527,0,0,0-.938.328,1.054,1.054,0,0,0-.018.839s3.579,8.7,7.633,13.052A10.906,10.906,0,0,0,66.65,919.759Z" transform="translate(-51 -901)"/>
</svg>
