<svg xmlns="http://www.w3.org/2000/svg" width="249" height="48" viewBox="0 0 249 48">
  <metadata><?xpacket begin="﻿" id="W5M0MpCehiHzreSzNTczkc9d"?>
<x:xmpmeta xmlns:x="adobe:ns:meta/" x:xmptk="Adobe XMP Core 5.6-c140 79.160451, 2017/05/06-01:08:21        ">
   <rdf:RDF xmlns:rdf="http://www.w3.org/1999/02/22-rdf-syntax-ns#">
      <rdf:Description rdf:about=""/>
   </rdf:RDF>
</x:xmpmeta>
                                                                                                    
                                                                                                    
                                                                                                    
                                                                                                    
                                                                                                    
                                                                                                    
                                                                                                    
                                                                                                    
                                                                                                    
                                                                                                    
                                                                                                    
                                                                                                    
                                                                                                    
                                                                                                    
                                                                                                    
                                                                                                    
                                                                                                    
                                                                                                    
                                                                                                    
                                                                                                    
                           
<?xpacket end="w"?></metadata>
<defs>
    <style>
      .cls-1 {
        fill: #8e9498;
        fill-rule: evenodd;
      }
    </style>
  </defs>
  <path id="logo" class="cls-1" d="M72.242,3672.42a0.277,0.277,0,0,0-.193-0.08,0.244,0.244,0,0,0-.188.1,17.736,17.736,0,0,1-3.91,3.53,17.333,17.333,0,0,1-9.6,2.9c-6.446,0-10.053-3.21-13.072-5.59a0.269,0.269,0,0,1-.1-0.21,0.272,0.272,0,0,1,.1-0.21c4.586-3.55,8.4-5.87,12.2-7.26a0.263,0.263,0,0,0,.168-0.28,0.254,0.254,0,0,0-.231-0.23c-0.678-.06-1.365-0.1-2.058-0.1C42.455,3664.99,32,3675.74,32,3689a24.218,24.218,0,0,0,8.2,18.26,0.258,0.258,0,0,0,.237.06,0.265,0.265,0,0,0,.173-0.18l0.953-3.12a0.256,0.256,0,0,1,.3-0.18c12.5,2.81,17.851-4.17,16.97-8.46-0.753-3.67-6.591-6.92-15.209-1.97a0.236,0.236,0,0,1-.215.02,0.2,0.2,0,0,1-.068-0.04l-0.026-.02a0.266,0.266,0,0,1-.095-0.26l2.922-15.27h0a0.245,0.245,0,0,1,.15-0.19,0.252,0.252,0,0,1,.238.02c0.844,0.55,3.266,2.12,5.907,3.77a0.255,0.255,0,0,1,.12.26c-0.09.66-.415,3.07-0.591,4.05a0.26,0.26,0,0,0,.078.24,0.237,0.237,0,0,0,.24.06c14.365-3.98,17.365,5.32,17,9.75-0.829,10.04-11.577,15.35-21.176,15.49a0.251,0.251,0,0,0-.249.22,0.262,0.262,0,0,0,.173.29,22.809,22.809,0,0,0,7.327,1.21c12.9,0,23.352-10.75,23.352-24.01a24.291,24.291,0,0,0-6.463-16.58m-22.9.64c4.678-.42,9.428-0.84,13.8-2.2a64.977,64.977,0,0,0,9.076-4.18,31.054,31.054,0,0,0-22.874,6.38m0,0.01a14.822,14.822,0,0,0,22.89-6.38s-0.008-.01-0.012-0.01a65.614,65.614,0,0,1-22.874,6.38,0.057,0.057,0,0,0,0,.01m118.477,9.75c-2.949,0-4.723,1.97-6.181,4.32h-0.069c0-2.46-.959-4.32-3.659-4.32-3.194,0-4.935,2.49-6.073,4.53h-0.068c0.187-.75.407-1.86,0.566-2.8a1.1,1.1,0,0,0-.23-0.87,1.033,1.033,0,0,0-.8-0.38h-3.236l-2.919,16.64a1.014,1.014,0,0,0,.21.81,0.957,0.957,0,0,0,.737.35h3.43l0.248-1.46c1.7-9.91,4.048-12.65,5.894-12.65,1.347,0,1.49,1.31,1.173,3.07l-1.756,9.74a1.151,1.151,0,0,0,.23.91,1.057,1.057,0,0,0,.824.39h3.326l0.249-1.46c1.672-9.84,4.015-12.65,5.932-12.65,1.278,0,1.455,1.21,1.135,3.07l-1.758,9.95a0.939,0.939,0,0,0,.194.76,0.885,0.885,0,0,0,.691.33h3.465l1.953-11.3a12.631,12.631,0,0,0,.249-2.45C171.579,3684.32,170.2,3682.82,167.817,3682.82Zm19.3-3.76,1.5,0.27c0.44,0.05.81,0.12,0.957-.59l0.531-1.93c0.133-.59-0.048-0.73-0.6-0.82l-1.4-.26a0.691,0.691,0,0,0-.956.55l-0.547,1.98A0.552,0.552,0,0,0,187.113,3679.06ZM143,3683.3h-6.61c-4.9,0-8.166,2.15-8.166,6.18a3.512,3.512,0,0,0,2.913,3.65v0.04a5.939,5.939,0,0,0-1.885,1.79c-1.2,1.57-2.06,2.6-2.838,2.6a0.284,0.284,0,0,0-.286.25l-0.393,2.81a0.422,0.422,0,0,0,.1.34,0.4,0.4,0,0,0,.308.14h1.409c2.238,0,3.055-.91,5.257-3.77,1.7-2.29,2.343-3.03,3.371-3.03h0.747l-1.086,6.31a0.411,0.411,0,0,0,.09.34,0.387,0.387,0,0,0,.314.15h3.818a0.411,0.411,0,0,0,.4-0.34l2.942-16.97a0.417,0.417,0,0,0-.088-0.34A0.4,0.4,0,0,0,143,3683.3Zm-5.511,7.75h-2.415c-1.491,0-2.2-.51-2.2-1.57,0-1.76,1.064-2.64,3.122-2.64h2.237Zm-6-15.99c18.377-.78,47.447,2.72,47.447,2.72a0.677,0.677,0,0,0,.8-0.44l0.3-.94,0.006-.01,0.5-1.61a0.355,0.355,0,0,0-.281-0.47c-3.6-.49-30.136-4.04-49.425-3.53a170.673,170.673,0,0,0-37.466,5.27,0.858,0.858,0,0,0-.621.68l-0.44,2.4a0.357,0.357,0,0,0,.1.33,0.35,0.35,0,0,0,.319.1c3.3-.75,7.865-1.55,13.913-2.33l-4.031,23.03c-0.1.4-.1,0.86,0.608,0.86h3.918a0.627,0.627,0,0,0,.669-0.7l3.794-22.43a2.1,2.1,0,0,1,1.537-1.54l0.019-.01c1.635-.17,4.461-0.35,6.191-0.5l-4.2,24.38c-0.151.83,0.268,0.8,0.572,0.8h4.1a0.858,0.858,0,0,0,.941-0.85l3.944-23.35h0.009a2.071,2.071,0,0,1,1.516-1.51C128.2,3675.27,129.481,3675.15,131.489,3675.06Zm50.8,3.3,1.685,0.23c0.455,0.05.837,0.13,1-.61l0.552-2.01c0.136-.63-0.048-0.78-0.626-0.88l-1.578-.21a0.719,0.719,0,0,0-.993.58l-0.572,2.05A0.59,0.59,0,0,0,182.291,3678.36Zm6.611,9.07c0-2.92-1.985-4.61-5.288-4.61-5.54,0-9.944,4.94-9.944,11.59,0,4.21,2.273,7.13,6.639,7.13a10.313,10.313,0,0,0,6.96-2.56l-1.81-3.14a6.813,6.813,0,0,1-4.4,1.86c-1.916,0-2.628-1.2-2.734-3.25C184.076,3693.79,188.9,3691.78,188.9,3687.43Zm-10.331,3.98c0.6-2.59,2.094-4.9,4.261-4.9a1.366,1.366,0,0,1,1.632,1.47C184.464,3689.84,182.085,3691.05,178.571,3691.41Zm24.038-8.59c-3.02,0-4.617,2.12-6.04,4.64H196.5c0.168-.64.31-1.24,0.44-1.86a1.963,1.963,0,0,0-.369-1.6,1.846,1.846,0,0,0-1.438-.7h-2.217l-4.581,25.78h2.589a2.411,2.411,0,0,0,2.351-2.02l1.024-5.77a8.919,8.919,0,0,0,2.415.25c6,0,10.334-5.01,10.334-12.69C207.046,3685.2,205.34,3682.82,202.609,3682.82Zm-5.9,15.21a6.263,6.263,0,0,1-1.775-.22l0.178-.98c1.312-6.55,3.55-9.88,5.576-9.88,1.1,0,1.562,1.06,1.562,2.67C202.253,3694.85,199.766,3698.03,196.712,3698.03Zm78.25-15.21c-6.426,0-10.9,5.23-10.9,12.87,0,3.66,1.81,5.86,4.474,5.86,2.806,0,4.509-2.16,5.86-4.76h0.072a23.917,23.917,0,0,0-.418,2.69,1.479,1.479,0,0,0,.353,1.14,1.42,1.42,0,0,0,1.064.49h2.977a67.708,67.708,0,0,1,1.1-9.15l1.458-8.11A15.708,15.708,0,0,0,274.962,3682.82Zm0.818,4.75c-1.174,6.66-3.446,9.88-5.328,9.88-1.1,0-1.6-.88-1.6-2.56,0-5.01,2.557-8.49,5.4-8.49a5.756,5.756,0,0,1,1.668.23Zm-17.789,6.52a7.443,7.443,0,0,0-1.49-2.23l7.6-8.56h-4.156a2.452,2.452,0,0,0-1.875.88l-5.328,6.32h-0.96l1.034-5.82a1.2,1.2,0,0,0-.246-0.96,1.11,1.11,0,0,0-.872-0.42h-3.322l-3.091,17.8h3.349a1.563,1.563,0,0,0,1.532-1.31l1.051-6.03h0.53c1.031,0,1.635,1.13,2.735,3.51,1.241,2.77,1.881,3.83,4.118,3.83h1.81l0.641-3.54h-0.392C259.73,3697.56,259.058,3696.46,257.991,3694.09Zm-18.781-9.69c-0.707,4.53-2.983,7.53-5.147,7.53-1.137,0-1.528-.85-1.172-2.82l0.556-3.5a2.024,2.024,0,0,0-.437-1.61,1.89,1.89,0,0,0-1.475-.7h-2.3l-1.066,6.03a12.735,12.735,0,0,0-.214,2.2c0,2.96,1.388,4.6,3.834,4.6,3.091,0,5.078-2.08,6.358-4.31h0.072c-0.534,2.71-1.174,6.73-1.459,9.28h4.475a87.069,87.069,0,0,1,1.208-9.14l1.526-8.66h-4.58Zm-20.662-1.58c-5.612,0-9.8,5.12-9.8,11.3,0,4.06,2.449,7.42,6.923,7.42,5.753,0,9.729-4.86,9.729-11.3C225.4,3686,222.915,3682.82,218.548,3682.82Zm-2.451,15.06c-1.774,0-2.663-1.53-2.663-3.87,0-3.29,1.81-7.53,4.722-7.53,1.776,0,2.629,1.39,2.629,3.84C220.785,3693.57,219.152,3697.88,216.1,3697.88Z" transform="translate(-32 -3665)"/>
</svg>
