<svg xmlns="http://www.w3.org/2000/svg" width="35.626" height="34.188"><path d="M17.188 7.094a10.22 10.22 0 0 1 7.16 3.1v.013A1.487 1.487 0 0 1 25.8 8.613h.216a1.62 1.62 0 0 1 1.594 1.648l.006 14.076a.912.912 0 0 0 1.532.8c2.256-2.328 4.95-11.938-1.406-17.515A15.229 15.229 0 0 0 9.626 6.208a13.671 13.671 0 0 0-4.582 16.431c3.039 7.04 11.77 9.141 16.948 7.045 2.624-1.061 3.838 2.493 1.111 3.657C18.986 35.09 7.52 34.914 2.162 25.63c-3.617-6.267-3.423-17.3 6.172-23.018a18.71 18.71 0 0 1 22.855 2.94c6.109 6.38 5.751 18.319-.2 22.969-2.7 2.106-6.714.051-6.675-3.021l-.039-1a9.986 9.986 0 0 1-7.09 2.953 10.175 10.175 0 0 1 0-20.35zm6.771 9.843a6.413 6.413 0 0 0-6.655-6.312h-.136c-4.078 0-6.336 3.211-6.336 6.849 0 4.076 2.733 6.653 6.312 6.653a6.624 6.624 0 0 0 6.815-6.392v-.8z" fill="#d9cabb" fill-rule="evenodd"/></svg>