<svg xmlns="http://www.w3.org/2000/svg" width="249" height="48"><path d="M40.242 7.42a.277.277 0 0 0-.193-.08.244.244 0 0 0-.188.1 17.736 17.736 0 0 1-3.91 3.53 17.333 17.333 0 0 1-9.6 2.9c-6.446 0-10.053-3.21-13.072-5.59a.269.269 0 0 1-.1-.21.272.272 0 0 1 .1-.21c4.586-3.55 8.4-5.87 12.2-7.26a.263.263 0 0 0 .168-.28.254.254 0 0 0-.231-.23 23.34 23.34 0 0 0-2.058-.1C10.455-.01 0 10.74 0 24a24.218 24.218 0 0 0 8.2 18.26.258.258 0 0 0 .237.06.265.265 0 0 0 .173-.18l.953-3.12a.256.256 0 0 1 .3-.18c12.5 2.81 17.851-4.17 16.97-8.46-.753-3.67-6.591-6.92-15.209-1.97a.236.236 0 0 1-.215.02.2.2 0 0 1-.068-.04l-.026-.02a.266.266 0 0 1-.095-.26l2.922-15.27a.245.245 0 0 1 .15-.19.252.252 0 0 1 .238.02c.844.55 3.266 2.12 5.907 3.77a.255.255 0 0 1 .12.26c-.09.66-.415 3.07-.591 4.05a.26.26 0 0 0 .078.24.237.237 0 0 0 .24.06c14.365-3.98 17.365 5.32 17 9.75-.829 10.04-11.577 15.35-21.176 15.49a.251.251 0 0 0-.249.22.262.262 0 0 0 .173.29 22.809 22.809 0 0 0 7.327 1.21c12.9 0 23.352-10.75 23.352-24.01a24.291 24.291 0 0 0-6.463-16.58m-22.9.64c4.678-.42 9.428-.84 13.8-2.2a64.977 64.977 0 0 0 9.076-4.18A31.054 31.054 0 0 0 17.35 8.06m0 .01a14.822 14.822 0 0 0 22.89-6.38s-.008-.01-.012-.01a65.614 65.614 0 0 1-22.874 6.38.057.057 0 0 0 0 .01m118.477 9.75c-2.949 0-4.723 1.97-6.181 4.32h-.069c0-2.46-.959-4.32-3.659-4.32-3.194 0-4.935 2.49-6.073 4.53h-.068c.187-.75.407-1.86.566-2.8a1.1 1.1 0 0 0-.23-.87 1.033 1.033 0 0 0-.8-.38h-3.236l-2.919 16.64a1.014 1.014 0 0 0 .21.81.957.957 0 0 0 .737.35h3.43l.248-1.46c1.7-9.91 4.048-12.65 5.894-12.65 1.347 0 1.49 1.31 1.173 3.07l-1.756 9.74a1.151 1.151 0 0 0 .23.91 1.057 1.057 0 0 0 .824.39h3.326l.249-1.46c1.672-9.84 4.015-12.65 5.932-12.65 1.278 0 1.455 1.21 1.135 3.07l-1.758 9.95a.939.939 0 0 0 .194.76.885.885 0 0 0 .691.33h3.465l1.953-11.3a12.631 12.631 0 0 0 .249-2.45c-.009-3.03-1.388-4.53-3.771-4.53zm19.3-3.76l1.5.27c.44.05.81.12.957-.59l.531-1.93c.133-.59-.048-.73-.6-.82l-1.4-.26a.691.691 0 0 0-.956.55l-.547 1.98a.552.552 0 0 0 .497.8zM111 18.3h-6.61c-4.9 0-8.166 2.15-8.166 6.18a3.512 3.512 0 0 0 2.913 3.65v.04a5.939 5.939 0 0 0-1.885 1.79c-1.2 1.57-2.06 2.6-2.838 2.6a.284.284 0 0 0-.286.25l-.393 2.81a.422.422 0 0 0 .1.34.4.4 0 0 0 .308.14h1.409c2.238 0 3.055-.91 5.257-3.77 1.7-2.29 2.343-3.03 3.371-3.03h.747l-1.086 6.31a.411.411 0 0 0 .09.34.387.387 0 0 0 .314.15h3.818a.411.411 0 0 0 .4-.34l2.942-16.97a.417.417 0 0 0-.088-.34.4.4 0 0 0-.317-.15zm-5.511 7.75h-2.415c-1.491 0-2.2-.51-2.2-1.57 0-1.76 1.064-2.64 3.122-2.64h2.237zm-6-15.99c18.377-.78 47.447 2.72 47.447 2.72a.677.677 0 0 0 .8-.44l.3-.94.006-.01.5-1.61a.355.355 0 0 0-.281-.47c-3.6-.49-30.136-4.04-49.425-3.53a170.673 170.673 0 0 0-37.466 5.27.858.858 0 0 0-.621.68l-.44 2.4a.357.357 0 0 0 .1.33.35.35 0 0 0 .319.1c3.3-.75 7.865-1.55 13.913-2.33L70.61 35.26c-.1.4-.1.86.608.86h3.918a.627.627 0 0 0 .669-.7l3.794-22.43a2.1 2.1 0 0 1 1.537-1.54l.019-.01c1.635-.17 4.461-.35 6.191-.5l-4.2 24.38c-.151.83.268.8.572.8h4.1a.858.858 0 0 0 .941-.85l3.944-23.35h.009a2.071 2.071 0 0 1 1.516-1.51c1.972-.14 3.253-.26 5.261-.35zm50.8 3.3l1.685.23c.455.05.837.13 1-.61l.552-2.01c.136-.63-.048-.78-.626-.88l-1.578-.21a.719.719 0 0 0-.993.58l-.572 2.05a.59.59 0 0 0 .534.85zm6.611 9.07c0-2.92-1.985-4.61-5.288-4.61-5.54 0-9.944 4.94-9.944 11.59 0 4.21 2.273 7.13 6.639 7.13a10.313 10.313 0 0 0 6.96-2.56l-1.81-3.14a6.813 6.813 0 0 1-4.4 1.86c-1.916 0-2.628-1.2-2.734-3.25 5.753-.66 10.577-2.67 10.577-7.02zm-10.331 3.98c.6-2.59 2.094-4.9 4.261-4.9a1.366 1.366 0 0 1 1.632 1.47c.002 1.86-2.377 3.07-5.891 3.43zm24.038-8.59c-3.02 0-4.617 2.12-6.04 4.64h-.067c.168-.64.31-1.24.44-1.86a1.963 1.963 0 0 0-.369-1.6 1.846 1.846 0 0 0-1.438-.7h-2.217l-4.581 25.78h2.589a2.411 2.411 0 0 0 2.351-2.02l1.024-5.77a8.919 8.919 0 0 0 2.415.25c6 0 10.334-5.01 10.334-12.69-.002-3.65-1.708-6.03-4.439-6.03zm-5.9 15.21a6.263 6.263 0 0 1-1.775-.22l.178-.98c1.312-6.55 3.55-9.88 5.576-9.88 1.1 0 1.562 1.06 1.562 2.67.005 5.23-2.482 8.41-5.536 8.41zm78.25-15.21c-6.426 0-10.9 5.23-10.9 12.87 0 3.66 1.81 5.86 4.474 5.86 2.806 0 4.509-2.16 5.86-4.76h.072a23.917 23.917 0 0 0-.418 2.69 1.479 1.479 0 0 0 .353 1.14 1.42 1.42 0 0 0 1.064.49h2.977a67.708 67.708 0 0 1 1.1-9.15l1.458-8.11a15.708 15.708 0 0 0-6.035-1.03zm.818 4.75c-1.174 6.66-3.446 9.88-5.328 9.88-1.1 0-1.6-.88-1.6-2.56 0-5.01 2.557-8.49 5.4-8.49a5.756 5.756 0 0 1 1.668.23zm-17.789 6.52a7.443 7.443 0 0 0-1.49-2.23l7.6-8.56h-4.156a2.452 2.452 0 0 0-1.875.88l-5.328 6.32h-.96l1.034-5.82a1.2 1.2 0 0 0-.246-.96 1.11 1.11 0 0 0-.872-.42h-3.322l-3.091 17.8h3.349a1.563 1.563 0 0 0 1.532-1.31l1.051-6.03h.53c1.031 0 1.635 1.13 2.735 3.51 1.241 2.77 1.881 3.83 4.118 3.83h1.81l.641-3.54h-.392c-.924 0-1.596-1.1-2.663-3.47zm-18.781-9.69c-.707 4.53-2.983 7.53-5.147 7.53-1.137 0-1.528-.85-1.172-2.82l.556-3.5a2.024 2.024 0 0 0-.437-1.61 1.89 1.89 0 0 0-1.475-.7h-2.3l-1.066 6.03a12.735 12.735 0 0 0-.214 2.2c0 2.96 1.388 4.6 3.834 4.6 3.091 0 5.078-2.08 6.358-4.31h.072c-.534 2.71-1.174 6.73-1.459 9.28h4.475a87.069 87.069 0 0 1 1.208-9.14l1.526-8.66h-4.58zm-20.662-1.58c-5.612 0-9.8 5.12-9.8 11.3 0 4.06 2.449 7.42 6.923 7.42 5.753 0 9.729-4.86 9.729-11.3.005-4.24-2.48-7.42-6.847-7.42zm-2.451 15.06c-1.774 0-2.663-1.53-2.663-3.87 0-3.29 1.81-7.53 4.722-7.53 1.776 0 2.629 1.39 2.629 3.84.005 3.25-1.628 7.56-4.68 7.56z" fill="#8e9498" fill-rule="evenodd"/></svg>