<svg xmlns="http://www.w3.org/2000/svg" viewBox="0 0 1000 1000"><path d="M107.957 281.133l-17.209 12.421c-4.766 3.44-11.424 2.371-14.87-2.389l-24.871-34.504c-3.431-4.76-2.355-11.395 2.405-14.83l17.243-12.447c59.515-42.957 139.197-45.24 201.07-5.758l14.834 9.466c39.845 25.425 91.157 23.956 129.484-3.708l17.209-12.421c4.766-3.44 11.424-2.371 14.87 2.389l24.871 34.504c3.431 4.76 2.355 11.395-2.405 14.83l-17.243 12.447c-59.515 42.957-139.197 45.24-201.07 5.758l-14.834-9.466c-39.845-25.425-91.157-23.956-129.484 3.708zm0-159.517l-17.209 12.421c-4.766 3.44-11.424 2.371-14.87-2.389l-24.87-34.504c-3.431-4.76-2.355-11.395 2.405-14.83l17.243-12.447c59.515-42.957 139.197-45.24 201.07-5.758l14.834 9.466C326.404 99 377.716 97.531 416.043 69.867l17.209-12.421c4.766-3.44 11.424-2.371 14.87 2.389l24.871 34.504c3.431 4.76 2.355 11.395-2.405 14.83l-17.243 12.447c-59.515 42.957-139.197 45.24-201.07 5.758l-14.834-9.466c-39.845-25.425-91.157-23.956-129.484 3.708z" fill-rule="evenodd"/></svg>